# xmcd
#
# Track frame offsets: 
#        150
#        14211
#        31729
#        42116
#        52977
#        72008
#        91344
#        101581
#        119670
#        140393
#        152994
#        169228
#        180363
#        194297
#        219059
#
# Disc length: 3105 seconds
#
# Revision: 0
# Processed by: cddbd v1.5.2PL0 Copyright (c) Steve Scherf et al.
# Submitted via: ExactAudioCopy v0.95b3
#
DISCID=c60c1f0f
DTITLE=Various  - Monterey Pop Festival 1967 Vol. 2  FLAC
DYEAR=1900
DGENRE=
TTITLE0=Simon and Garfunkel \\ Homeward
TTITLE1=Simon and Garfunkel \\ At The Zoo
TTITLE2=Simon and Garfunkel \\ Feelin' Groovy
TTITLE3=Simon and Garfunkel \\ For Emily Whenever I May Find Her
TTITLE4=Simon and Garfunkel \\ Sound Of Silence
TTITLE5=Simon and Garfunkel \\ Benedictus
TTITLE6=Simon and Garfunkel \\ Punky's Dilemma
TTITLE7=Buffalo Springfield \\ Rock And Roll Woman
TTITLE8=Buffalo Springfield \\ Bluebird
TTITLE9=Buffalo Springfield \\ For What It's Worth
TTITLE10=Buffalo Springfield \\ Nowadays Clancy Can't Even Sing
TTITLE11=Electric Flag \\ Drinkin' Wine
TTITLE12=Electric Flag \\ Groovin' Is Easy
TTITLE13=Electric Flag \\ Nighttime Is The Right Time
TTITLE14=Mg's And The Mar-Keys \\ Do The Dog
EXTD=
EXTT0=
EXTT1=
EXTT2=
EXTT3=
EXTT4=
EXTT5=
EXTT6=
EXTT7=
EXTT8=
EXTT9=
EXTT10=
EXTT11=
EXTT12=
EXTT13=
EXTT14=
PLAYORDER=
